<svg xmlns="http://www.w3.org/2000/svg" width="146" height="167" fill="none"><path fill="url(#a)" fill-rule="evenodd" d="M52.025 40.688c.657-1.426 1.426-2.534 1.934-3.118a12.3 12.3 0 0 1-.53 3.687 12.3 12.3 0 0 1 3.066 2.114c-.774-.024-2.11-.211-3.602-.697-.688 1.517-1.558 2.565-2.128 3.052.039-1.277.307-2.5.685-3.604-1.067-.473-2.148-1.107-3.111-1.945.745-.088 2.105-.015 3.686.51" clip-rule="evenodd"/><path fill="url(#b)" fill-rule="evenodd" d="M46.833 26.405c.438-.95.95-1.686 1.288-2.075a8.2 8.2 0 0 1-.354 2.454c.674.325 1.373.78 2.042 1.407-.515-.016-1.404-.14-2.398-.464-.458 1.01-1.037 1.707-1.416 2.032.026-.85.204-1.665.456-2.4a8.2 8.2 0 0 1-2.071-1.294c.496-.058 1.401-.01 2.453.34" clip-rule="evenodd"/><path fill="url(#c)" fill-rule="evenodd" d="M32.783 12.207c.656-1.426 1.426-2.533 1.934-3.117a12.3 12.3 0 0 1-.531 3.687 12.3 12.3 0 0 1 3.067 2.113c-.774-.023-2.11-.21-3.602-.697-.688 1.518-1.558 2.565-2.128 3.053.039-1.277.307-2.5.685-3.605-1.067-.472-2.148-1.106-3.111-1.945.745-.087 2.105-.014 3.686.511" clip-rule="evenodd"/><path fill="url(#d)" fill-rule="evenodd" d="M30.556 44.173c.967-2.098 2.098-3.728 2.846-4.587a18 18 0 0 1-.781 5.424 18 18 0 0 1 4.512 3.11c-1.139-.034-3.103-.31-5.3-1.025-1.011 2.232-2.291 3.773-3.13 4.49.057-1.878.452-3.678 1.007-5.302-1.569-.696-3.159-1.628-4.576-2.862 1.096-.129 3.096-.021 5.422.752" clip-rule="evenodd"/><circle cx="36.369" cy="29.816" r=".847" fill="#2F235A" transform="rotate(21.387 36.37 29.816)"/><circle cx="57.33" cy="19.172" r=".847" fill="#FE9076" transform="rotate(21.387 57.33 19.172)"/><circle cx="17.095" cy="23.797" r=".847" fill="#FFA400" transform="rotate(21.387 17.095 23.797)"/><circle cx="35.273" cy="57.882" r=".847" fill="#23BB86" transform="rotate(21.387 35.273 57.882)"/><path stroke="#FE9076" stroke-linecap="round" stroke-width=".737" d="M56.687 15.126c-.824-3.145-3.797-10.34-9.099-13.95"/><path stroke="#FFA400" stroke-linecap="round" stroke-width=".737" d="M14.596 20.381c-2.05-2.524-7.728-7.848-14.048-8.947"/><path stroke="#23BB86" stroke-linecap="round" stroke-width=".737" d="M31.67 59.112c-1.816.662-6.388 2.773-10.146 5.916"/><path fill="url(#e)" fill-rule="evenodd" d="M93.975 40.688c-.657-1.426-1.426-2.534-1.934-3.118-.01 1.378.202 2.613.53 3.687a12.3 12.3 0 0 0-3.066 2.114c.774-.024 2.11-.211 3.602-.697.688 1.517 1.558 2.565 2.128 3.052-.039-1.277-.307-2.5-.685-3.604 1.067-.473 2.148-1.107 3.111-1.945-.745-.088-2.105-.015-3.686.51" clip-rule="evenodd"/><path fill="url(#f)" fill-rule="evenodd" d="M99.167 26.405c-.437-.95-.95-1.686-1.288-2.075-.007.917.135 1.74.353 2.454a8.2 8.2 0 0 0-2.04 1.407c.514-.016 1.403-.14 2.397-.464.458 1.01 1.037 1.707 1.416 2.032a8.2 8.2 0 0 0-.456-2.4 8.2 8.2 0 0 0 2.071-1.294c-.496-.058-1.401-.01-2.453.34" clip-rule="evenodd"/><path fill="url(#g)" fill-rule="evenodd" d="M113.217 12.207c-.656-1.426-1.426-2.533-1.934-3.117-.01 1.377.202 2.613.531 3.687a12.3 12.3 0 0 0-3.067 2.113c.774-.023 2.11-.21 3.602-.697.688 1.518 1.558 2.565 2.128 3.053-.039-1.277-.307-2.5-.685-3.605 1.067-.472 2.148-1.106 3.111-1.945-.745-.087-2.105-.014-3.686.511" clip-rule="evenodd"/><path fill="url(#h)" fill-rule="evenodd" d="M115.444 44.173c-.967-2.098-2.098-3.728-2.846-4.587a18 18 0 0 0 .781 5.424 18 18 0 0 0-4.512 3.11c1.139-.034 3.103-.31 5.299-1.025 1.012 2.232 2.292 3.773 3.131 4.49-.057-1.878-.452-3.678-1.007-5.302 1.569-.696 3.159-1.628 4.576-2.862-1.096-.129-3.096-.021-5.422.752" clip-rule="evenodd"/><circle cx=".847" cy=".847" r=".847" fill="#2F235A" transform="scale(-1 1)rotate(21.387 -131.1 -277.199)"/><circle cx=".847" cy=".847" r=".847" fill="#FE9076" transform="scale(-1 1)rotate(21.387 -92.436 -227.02)"/><circle cx=".847" cy=".847" r=".847" fill="#FFA400" transform="scale(-1 1)rotate(21.387 -124.799 -331.246)"/><circle cx=".847" cy=".847" r=".847" fill="#23BB86" transform="scale(-1 1)rotate(21.387 -205.963 -266.07)"/><path stroke="#FE9076" stroke-linecap="round" stroke-width=".737" d="M89.314 15.126c.823-3.145 3.796-10.34 9.098-13.95"/><path stroke="#FFA400" stroke-linecap="round" stroke-width=".737" d="M131.404 20.381c2.049-2.524 7.728-7.848 14.048-8.947"/><path stroke="#23BB86" stroke-linecap="round" stroke-width=".737" d="M114.33 59.112c1.816.662 6.387 2.773 10.146 5.916"/><path fill="url(#i)" d="M28.075 104.439h89.85v62.11h-89.85z"/><mask id="j" width="90" height="63" x="28" y="104" maskUnits="userSpaceOnUse" style="mask-type:alpha"><path fill="#C4C4C4" d="M28.075 104.439h89.85v62.11h-89.85z"/></mask><g mask="url(#j)"><path fill="#000" fill-opacity=".07" d="M32.326 102.858h61.182L79.68 126.869H18.498z"/><path fill="url(#k)" d="M89.177 104.439h89.85v62.11h-89.85z"/></g><path fill="url(#l)" d="M27.995 104.439h61.182L77.36 124.162H16.177z"/><mask id="m" width="29" height="63" x="89" y="104" maskUnits="userSpaceOnUse" style="mask-type:alpha"><path fill="#C4C4C4" d="M89.177 104.439h28.748v62.11H89.177z"/></mask><g mask="url(#m)"><path fill="#000" fill-opacity=".07" d="M114.425 104.336H85.632l13.53 22.707h28.793z"/></g><path fill="url(#n)" d="M117.97 104.439H89.177l11.819 19.723h28.793z"/><circle cx="57.926" cy="88.62" r="8.491" fill="url(#o)"/><circle cx="91.127" cy="71.924" r="8.205" fill="url(#p)"/><circle cx="59.8" cy="57.103" r="6.616" fill="url(#q)"/><circle cx="85.142" cy="41.964" r="5.985" fill="url(#r)"/><circle cx="75.402" cy="64.386" r="1.65" fill="#FFA800" fill-opacity=".23"/><circle cx="100.982" cy="52.136" r="1.65" fill="#FFA800" fill-opacity=".23"/><circle cx="61.45" cy="32.427" r="1.65" fill="#FFA800" fill-opacity=".23"/><circle cx="83.492" cy="92.284" r="1.65" fill="#FFA800" fill-opacity=".23"/><circle cx="45.342" cy="66.037" r="1.65" fill="#FFA800" fill-opacity=".23"/><path fill="url(#s)" d="M118.138 104.733H28.004L14.16 19.385H134.76z"/><defs><linearGradient id="a" x1="53.709" x2="50.71" y1="38.474" y2="46.132" gradientUnits="userSpaceOnUse"><stop stop-color="#FFE89E"/><stop offset="1" stop-color="#FFBF1A"/></linearGradient><linearGradient id="b" x1="47.955" x2="45.958" y1="24.931" y2="30.029" gradientUnits="userSpaceOnUse"><stop stop-color="#FFE89E"/><stop offset="1" stop-color="#FFBF1A"/></linearGradient><linearGradient id="c" x1="34.467" x2="31.468" y1="9.993" y2="17.651" gradientUnits="userSpaceOnUse"><stop stop-color="#FFE89E"/><stop offset="1" stop-color="#FFBF1A"/></linearGradient><linearGradient id="d" x1="33.035" x2="28.622" y1="40.915" y2="52.182" gradientUnits="userSpaceOnUse"><stop stop-color="#FFE89E"/><stop offset="1" stop-color="#FFBF1A"/></linearGradient><linearGradient id="e" x1="92.291" x2="95.29" y1="38.474" y2="46.132" gradientUnits="userSpaceOnUse"><stop stop-color="#FFE89E"/><stop offset="1" stop-color="#FFBF1A"/></linearGradient><linearGradient id="f" x1="98.045" x2="100.042" y1="24.931" y2="30.029" gradientUnits="userSpaceOnUse"><stop stop-color="#FFE89E"/><stop offset="1" stop-color="#FFBF1A"/></linearGradient><linearGradient id="g" x1="111.533" x2="114.532" y1="9.993" y2="17.651" gradientUnits="userSpaceOnUse"><stop stop-color="#FFE89E"/><stop offset="1" stop-color="#FFBF1A"/></linearGradient><linearGradient id="h" x1="112.965" x2="117.378" y1="40.915" y2="52.182" gradientUnits="userSpaceOnUse"><stop stop-color="#FFE89E"/><stop offset="1" stop-color="#FFBF1A"/></linearGradient><linearGradient id="i" x1="58.089" x2="22.279" y1="92.94" y2="191.572" gradientUnits="userSpaceOnUse"><stop stop-color="#FFD481"/><stop offset="1" stop-color="#FA620C"/></linearGradient><linearGradient id="k" x1="43.404" x2="152.084" y1="100.5" y2="216.64" gradientUnits="userSpaceOnUse"><stop stop-color="#FFD481"/><stop offset=".833" stop-color="#FA620C"/></linearGradient><linearGradient id="l" x1="29.254" x2="26.347" y1="97.391" y2="139.413" gradientUnits="userSpaceOnUse"><stop stop-color="#FFD481"/><stop offset="1" stop-color="#FA620C"/></linearGradient><linearGradient id="n" x1="122.513" x2="127.685" y1="97.391" y2="138.971" gradientUnits="userSpaceOnUse"><stop stop-color="#FFD481"/><stop offset="1" stop-color="#FA620C"/></linearGradient><linearGradient id="o" x1="58.569" x2="56.954" y1="77.327" y2="100.245" gradientUnits="userSpaceOnUse"><stop stop-color="#FF9F81"/><stop offset="1" stop-color="#F53838"/></linearGradient><linearGradient id="p" x1="91.748" x2="90.188" y1="61.011" y2="83.158" gradientUnits="userSpaceOnUse"><stop stop-color="#FF9F81"/><stop offset="1" stop-color="#F53838"/></linearGradient><linearGradient id="q" x1="60.301" x2="59.043" y1="48.303" y2="66.162" gradientUnits="userSpaceOnUse"><stop stop-color="#FF9F81"/><stop offset="1" stop-color="#F53838"/></linearGradient><linearGradient id="r" x1="85.595" x2="84.457" y1="34.003" y2="50.159" gradientUnits="userSpaceOnUse"><stop stop-color="#FF9F81"/><stop offset="1" stop-color="#F53838"/></linearGradient><linearGradient id="s" x1="73.469" x2="73.469" y1="19.385" y2="200.709" gradientUnits="userSpaceOnUse"><stop stop-color="#fff" stop-opacity="0"/><stop offset="1" stop-color="#FE9277"/></linearGradient></defs></svg>